<?xml version="1.0" encoding="UTF-8" standalone="no"?>
<!-- Created with Inkscape (http://www.inkscape.org/) -->

<svg
   xmlns:dc="http://purl.org/dc/elements/1.1/"
   xmlns:cc="http://creativecommons.org/ns#"
   xmlns:rdf="http://www.w3.org/1999/02/22-rdf-syntax-ns#"
   xmlns:svg="http://www.w3.org/2000/svg"
   xmlns="http://www.w3.org/2000/svg"
   xmlns:sodipodi="http://sodipodi.sourceforge.net/DTD/sodipodi-0.dtd"
   xmlns:inkscape="http://www.inkscape.org/namespaces/inkscape"
   width="4322.8345"
   height="2161.4172"
   id="svg2"
   version="1.1"
   inkscape:version="0.48.4 r9939"
   sodipodi:docname="legs.svg">
  <defs
     id="defs4" />
  <sodipodi:namedview
     id="base"
     pagecolor="#ffffff"
     bordercolor="#666666"
     borderopacity="1.0"
     inkscape:pageopacity="0.0"
     inkscape:pageshadow="2"
     inkscape:zoom="0.25"
     inkscape:cx="968.99009"
     inkscape:cy="1184.9051"
     inkscape:document-units="mm"
     inkscape:current-layer="layer1"
     showgrid="false"
     units="mm"
     inkscape:window-width="1366"
     inkscape:window-height="716"
     inkscape:window-x="0"
     inkscape:window-y="0"
     inkscape:window-maximized="1" />
  <metadata
     id="metadata7">
    <rdf:RDF>
      <cc:Work
         rdf:about="">
        <dc:format>image/svg+xml</dc:format>
        <dc:type
           rdf:resource="http://purl.org/dc/dcmitype/StillImage" />
        <dc:title />
      </cc:Work>
    </rdf:RDF>
  </metadata>
  <g
     inkscape:label="Layer 1"
     inkscape:groupmode="layer"
     id="layer1"
     transform="translate(0,1109.0551)">
    <path
       style="fill:none;stroke:#000000;stroke-width:4.09856606;stroke-linecap:butt;stroke-linejoin:miter;stroke-miterlimit:4;stroke-opacity:1;stroke-dasharray:none"
       d="m 372.38211,-173.59502 c 34.91355,-131.90809 121.69209,-573.32587 337.79547,-775.93052 l -85.42454,0 c -91.65545,-2.28818 -269.8863,373.89409 -348.49023,682.44379 C 176.05757,126.26131 131.89773,597.56627 132.9332,924.31826 l 153.744,0 c 2.78672,-531.38478 30.04097,-801.77999 85.70491,-1097.91328 z"
       id="path4055"
       inkscape:connector-curvature="0"
       sodipodi:nodetypes="cccsccc" />
    <path
       style="fill:none;stroke:#000000;stroke-width:4.09856606;stroke-linecap:butt;stroke-linejoin:miter;stroke-miterlimit:4;stroke-opacity:1;stroke-dasharray:none"
       d="m 797.37027,-173.59492 c 34.91355,-131.90819 121.69203,-573.32597 337.79543,-775.93052 l -85.4246,0 C 958.08574,-951.81372 779.85487,-575.63145 701.25097,-267.08175 601.04568,126.26131 556.88586,597.56627 557.92136,924.31826 l 153.74399,0 c 2.78674,-531.38468 30.04095,-801.77999 85.70492,-1097.91318 z"
       id="path4055-7"
       inkscape:connector-curvature="0"
       sodipodi:nodetypes="cccsccc" />
    <path
       style="fill:none;stroke:#000000;stroke-width:4.09856606;stroke-linecap:butt;stroke-linejoin:miter;stroke-miterlimit:4;stroke-opacity:1;stroke-dasharray:none"
       d="m 1222.3584,-173.59492 c 34.9136,-131.90809 121.692,-573.32587 337.7954,-775.93042 l -85.4244,0 c -91.6555,-2.28828 -269.8864,373.89399 -348.4903,682.44369 C 1026.0339,126.26141 981.87403,597.56647 982.9095,924.31826 l 153.744,0 c 2.7867,-531.38458 30.0409,-801.77989 85.7049,-1097.91318 z"
       id="path4055-2"
       inkscape:connector-curvature="0"
       sodipodi:nodetypes="cccsccc" />
    <path
       style="fill:none;stroke:#000000;stroke-width:4.09856606;stroke-linecap:butt;stroke-linejoin:miter;stroke-miterlimit:4;stroke-opacity:1;stroke-dasharray:none"
       d="m 1647.3466,-173.59482 c 34.9136,-131.90819 121.6921,-573.32597 337.7954,-775.93052 l -85.4245,0 c -91.6555,-2.28828 -269.8863,373.89399 -348.4903,682.44379 -100.2052,393.34296 -144.3651,864.64802 -143.3296,1191.39981 l 153.7441,0 c 2.7867,-531.38458 30.0409,-801.77989 85.7049,-1097.91308 z"
       id="path4055-7-0"
       inkscape:connector-curvature="0"
       sodipodi:nodetypes="cccsccc" />
  </g>
</svg>
