<?xml version="1.0" encoding="UTF-8" standalone="no"?>
<!-- Created with Inkscape (http://www.inkscape.org/) -->

<svg
   xmlns:dc="http://purl.org/dc/elements/1.1/"
   xmlns:cc="http://creativecommons.org/ns#"
   xmlns:rdf="http://www.w3.org/1999/02/22-rdf-syntax-ns#"
   xmlns:svg="http://www.w3.org/2000/svg"
   xmlns="http://www.w3.org/2000/svg"
   xmlns:sodipodi="http://sodipodi.sourceforge.net/DTD/sodipodi-0.dtd"
   xmlns:inkscape="http://www.inkscape.org/namespaces/inkscape"
   width="4322.8345"
   height="2161.4172"
   id="svg2"
   version="1.1"
   inkscape:version="0.48.4 r9939"
   sodipodi:docname="legs.svg">
  <defs
     id="defs4" />
  <sodipodi:namedview
     id="base"
     pagecolor="#ffffff"
     bordercolor="#666666"
     borderopacity="1.0"
     inkscape:pageopacity="0.0"
     inkscape:pageshadow="2"
     inkscape:zoom="0.5"
     inkscape:cx="1455.9291"
     inkscape:cy="642.9753"
     inkscape:document-units="mm"
     inkscape:current-layer="layer1"
     showgrid="false"
     units="mm"
     inkscape:window-width="1920"
     inkscape:window-height="1028"
     inkscape:window-x="0"
     inkscape:window-y="0"
     inkscape:window-maximized="1" />
  <metadata
     id="metadata7">
    <rdf:RDF>
      <cc:Work
         rdf:about="">
        <dc:format>image/svg+xml</dc:format>
        <dc:type
           rdf:resource="http://purl.org/dc/dcmitype/StillImage" />
        <dc:title></dc:title>
      </cc:Work>
    </rdf:RDF>
  </metadata>
  <g
     inkscape:label="Layer 1"
     inkscape:groupmode="layer"
     id="layer1"
     transform="translate(0,1109.0551)">
    <path
       style="fill:none;stroke:#000000;stroke-width:3.18897629;stroke-linecap:butt;stroke-linejoin:miter;stroke-miterlimit:4;stroke-opacity:1;stroke-dasharray:none"
       d="m 312.04492,315.5569 c 34.93069,-79.8173 121.75184,-346.9181 337.96134,-469.51366 l -85.46648,0 C 472.83932,-155.34136 294.52094,72.2856 215.87841,258.9883 115.62396,496.9992 71.442438,782.1847 72.478415,979.9015 l 153.819495,0 C 229.086,658.3619 256.35363,494.7464 312.04492,315.5569 z"
       id="path4055"
       inkscape:connector-curvature="0"
       sodipodi:nodetypes="cccsccc" />
    <path
       style="fill:none;stroke:#000000;stroke-width:3.18897629;stroke-linecap:butt;stroke-linejoin:miter;stroke-miterlimit:4;stroke-opacity:1;stroke-dasharray:none"
       d="m 737.24177,315.55693 c 34.9307,-79.8173 121.7518,-346.918104 337.96133,-469.51363 l -85.46653,0 c -91.7004,-1.3846 -270.0188,226.242326 -348.6613,412.94503 -100.2545,238.0109 -144.436,523.19638 -143.4,720.91318 l 153.8195,0 c 2.7881,-321.53958 30.0557,-485.15508 85.747,-664.34458 z"
       id="path4055-7"
       inkscape:connector-curvature="0"
       sodipodi:nodetypes="cccsccc" />
    <path
       style="fill:none;stroke:#000000;stroke-width:3.18897629;stroke-linecap:butt;stroke-linejoin:miter;stroke-miterlimit:4;stroke-opacity:1;stroke-dasharray:none"
       d="m 1162.4386,318.38127 c 34.9307,-79.8173 121.7518,-346.9181 337.9613,-469.51363 l -85.4664,0 C 1323.233,-152.51696 1144.9146,75.10997 1066.2721,261.81267 966.01766,499.8236 921.83614,785.0091 922.87212,982.7258 l 153.81948,0 c 2.7881,-321.5395 30.0557,-485.155 85.747,-664.34453 z"
       id="path4055-2"
       inkscape:connector-curvature="0"
       sodipodi:nodetypes="cccsccc" />
    <path
       style="fill:none;stroke:#000000;stroke-width:3.18897629;stroke-linecap:butt;stroke-linejoin:miter;stroke-miterlimit:4;stroke-opacity:1;stroke-dasharray:none"
       d="m 1587.6355,318.3813 c 34.9307,-79.8173 121.7518,-346.9181 337.9613,-469.51366 l -85.4665,0 c -91.7004,-1.3846 -270.0188,226.24236 -348.6613,412.94506 -100.2545,238.0109 -144.436,523.1964 -143.4,720.9131 l 153.8195,0 c 2.7881,-321.5395 30.0557,-485.155 85.747,-664.3445 z"
       id="path4055-7-0"
       inkscape:connector-curvature="0"
       sodipodi:nodetypes="cccsccc" />
    <path
       sodipodi:type="arc"
       style="fill:none;stroke:#000000;stroke-width:2.15897679;stroke-miterlimit:4;stroke-opacity:1;stroke-dasharray:none"
       id="path4117"
       sodipodi:cx="2241.5286"
       sodipodi:cy="1533.5065"
       sodipodi:rx="182.43355"
       sodipodi:ry="182.43355"
       d="m 2423.9621,1533.5065 a 182.43355,182.43355 0 1 1 -364.8671,0 182.43355,182.43355 0 1 1 364.8671,0 z"
       transform="matrix(1.4770776,0,0,1.4770776,-938.5526,-1745.8544)" />
    <path
       sodipodi:type="arc"
       style="fill:none;stroke:#000000;stroke-width:3.21626234;stroke-miterlimit:4;stroke-opacity:1;stroke-dasharray:none"
       id="path4117-2"
       sodipodi:cx="2241.5286"
       sodipodi:cy="1533.5065"
       sodipodi:rx="182.43355"
       sodipodi:ry="182.43355"
       d="m 2423.9621,1533.5065 a 182.43355,182.43355 0 1 1 -364.8671,0 182.43355,182.43355 0 1 1 364.8671,0 z"
       transform="matrix(0.99151625,0,0,0.99151625,149.84706,-1001.243)" />
  </g>
</svg>
